<svg width="92" height="99" viewBox="0 0 92 99" fill="none" xmlns="http://www.w3.org/2000/svg">
<path fill-rule="evenodd" clip-rule="evenodd" d="M41.1056 72.0123C110.28 29.895 58.776 -2.33831 38.0022 16.5077C17.2221 -2.33831 -34.2817 29.895 34.8988 72.0123L33.4168 74.6271C33.3236 74.7915 33.2681 74.9704 33.2533 75.1537C33.2386 75.337 33.2649 75.5211 33.3307 75.6954C33.4638 76.0475 33.7499 76.3385 34.1261 76.5045C34.5024 76.6704 34.938 76.6977 35.3371 76.5804C35.7362 76.463 36.0661 76.2106 36.2542 75.8787L36.5075 75.4317C36.5645 76.3815 36.6595 77.1917 36.8305 77.946C37.2612 79.868 38.1479 81.4213 39.6679 84.1032L39.7503 84.2597C41.093 86.6175 40.903 89.0089 40.0669 91.2215C39.2119 93.4676 37.7489 95.4176 36.6849 96.8256C36.4514 97.1338 36.3662 97.5112 36.4482 97.8748C36.5302 98.2384 36.7725 98.5584 37.1219 98.7644C37.4713 98.9704 37.8991 99.0455 38.3112 98.9732C38.7234 98.9009 39.0861 98.6871 39.3196 98.3789L39.3449 98.3397C40.3963 96.9541 42.0746 94.7303 43.069 92.1099C44.0824 89.4335 44.4117 86.2376 42.5877 83.0081C40.9536 80.1306 40.2759 78.9182 39.9339 77.3984C39.8185 76.8649 39.7402 76.3257 39.6996 75.7837L39.7503 75.8787C39.9384 76.2106 40.2683 76.463 40.6674 76.5804C41.0665 76.6977 41.5021 76.6704 41.8783 76.5045C42.2546 76.3385 42.5407 76.0475 42.6737 75.6954C42.8067 75.3433 42.7758 74.9591 42.5877 74.6271L41.0993 72.0123H41.1056ZM29.9334 18.089C22.5422 14.6807 12.1997 17.2956 8.05756 24.4306C6.55653 27.0175 5.77751 30.4649 6.7782 34.7671C7.12654 36.2757 9.73593 35.8678 10.1159 34.3704C11.921 27.3527 17.5704 20.6144 29.0467 20.2457C30.5287 20.201 31.2507 18.6924 29.9334 18.089Z" fill="#AC1C2E"/>
<circle cx="84" cy="8" r="8" fill="#FEB800"/>
</svg>
